<svg xmlns="http://www.w3.org/2000/svg" viewBox="0 0 400 400">
  <rect width="400" height="400" fill="#08090c"/>
  <rect x="70" y="70" width="260" height="260" rx="40" fill="#1a2535" stroke="#c9a962" stroke-width="4"/>
  <rect x="85" y="85" width="230" height="230" rx="30" fill="#0e1a28"/>
  <g stroke="#163048" stroke-width="1">
    <line x1="100" y1="120" x2="300" y2="120"/><line x1="100" y1="150" x2="300" y2="150"/>
    <line x1="100" y1="180" x2="300" y2="180"/><line x1="100" y1="210" x2="300" y2="210"/>
    <line x1="100" y1="240" x2="300" y2="240"/><line x1="100" y1="270" x2="300" y2="270"/>
  </g>
  <g fill="#c9a962">
    <rect x="192" y="100" width="16" height="20" rx="2"/>
    <rect x="192" y="280" width="16" height="20" rx="2"/>
    <rect x="100" y="192" width="20" height="16" rx="2"/>
    <rect x="280" y="192" width="20" height="16" rx="2"/>
  </g>
  <line x1="200" y1="200" x2="200" y2="130" stroke="#e8e4d0" stroke-width="4" stroke-linecap="round"/>
  <line x1="200" y1="200" x2="255" y2="230" stroke="#c9a962" stroke-width="3" stroke-linecap="round"/>
  <circle cx="200" cy="200" r="5" fill="#c9a962"/>
  <text x="200" y="255" text-anchor="middle" fill="#4a6a8a" font-size="8" font-family="Georgia, serif">AQUANAUT</text>
</svg>