<svg xmlns="http://www.w3.org/2000/svg" viewBox="0 0 400 400">
  <rect width="400" height="400" fill="#08090c"/>
  <circle cx="200" cy="200" r="175" fill="#2a2520" stroke="#c9a962" stroke-width="5"/>
  <circle cx="200" cy="200" r="160" fill="#1a1810" stroke="#a08040" stroke-width="2"/>
  <g stroke="#c9a962" stroke-width="1.5">
    <line x1="200" y1="40" x2="200" y2="55"/><line x1="250" y1="52" x2="245" y2="65"/>
    <line x1="290" y1="85" x2="280" y2="95"/><line x1="320" y1="130" x2="308" y2="135"/>
    <line x1="335" y1="180" x2="322" y2="182"/><line x1="335" y1="220" x2="322" y2="218"/>
    <line x1="320" y1="270" x2="308" y2="265"/><line x1="290" y1="315" x2="280" y2="305"/>
    <line x1="250" y1="348" x2="245" y2="335"/><line x1="200" y1="360" x2="200" y2="345"/>
  </g>
  <circle cx="200" cy="200" r="130" fill="#0f0e0c"/>
  <g fill="#c9a962">
    <rect x="193" y="85" width="14" height="22" rx="1"/>
    <rect x="193" y="293" width="14" height="22" rx="1"/>
    <rect x="85" y="193" width="22" height="14" rx="1"/>
    <rect x="293" y="193" width="22" height="14" rx="1"/>
    <circle cx="270" cy="120" r="6"/><circle cx="300" cy="170" r="6"/>
    <circle cx="300" cy="230" r="6"/><circle cx="270" cy="280" r="6"/>
    <circle cx="130" cy="280" r="6"/><circle cx="100" cy="230" r="6"/>
    <circle cx="100" cy="170" r="6"/><circle cx="130" cy="120" r="6"/>
  </g>
  <line x1="200" y1="200" x2="200" y2="115" stroke="#e8e4d0" stroke-width="4" stroke-linecap="round"/>
  <line x1="200" y1="200" x2="270" y2="200" stroke="#c9a962" stroke-width="3" stroke-linecap="round"/>
  <circle cx="200" cy="200" r="6" fill="#c9a962"/>
  <rect x="270" y="186" width="34" height="28" rx="2" fill="#0d0d0d" stroke="#c9a962" stroke-width="1.2"/>
  <text x="287" y="206" text-anchor="middle" fill="#e8e4d0" font-size="14" font-family="Georgia, serif">15</text>
  <text x="200" y="255" text-anchor="middle" fill="#888" font-size="8" font-family="Arial, sans-serif" letter-spacing="1">DATEJUST</text>
</svg>