<svg xmlns="http://www.w3.org/2000/svg" viewBox="0 0 400 400" fill="none">
  <rect width="400" height="400" fill="#0a0c12"/>
  <defs>
    <linearGradient id="bezel" x1="0" y1="0" x2="1" y2="1">
      <stop offset="0%" stop-color="#1a3a6b"/><stop offset="50%" stop-color="#0d1118"/><stop offset="100%" stop-color="#1a1a1a"/>
    </linearGradient>
  </defs>
  <circle cx="200" cy="200" r="155" fill="url(#bezel)" stroke="#c9a962" stroke-width="2"/>
  <circle cx="200" cy="200" r="128" fill="#0d1118"/>
  <g fill="#4a90d9" font-size="8" font-family="sans-serif">
    <text x="200" y="60" text-anchor="middle">24</text>
    <text x="310" y="110" text-anchor="middle">4</text>
    <text x="340" y="205" text-anchor="middle">6</text>
    <text x="310" y="300" text-anchor="middle">8</text>
    <text x="200" y="350" text-anchor="middle">12</text>
    <text x="90" y="300" text-anchor="middle">16</text>
    <text x="60" y="205" text-anchor="middle">18</text>
    <text x="90" y="110" text-anchor="middle">20</text>
  </g>
  <g stroke="#e8e4d9" stroke-width="2.5">
    <line x1="200" y1="95" x2="200" y2="110"/><line x1="200" y1="290" x2="200" y2="305"/>
    <line x1="95" y1="200" x2="110" y2="200"/><line x1="290" y1="200" x2="305" y2="200"/>
  </g>
  <line x1="200" y1="200" x2="200" y2="125" stroke="#e8e4d9" stroke-width="3" stroke-linecap="round"/>
  <line x1="200" y1="200" x2="255" y2="240" stroke="#c9a962" stroke-width="2.5" stroke-linecap="round"/>
  <line x1="200" y1="200" x2="140" y2="160" stroke="#4a90d9" stroke-width="2" stroke-linecap="round"/>
  <circle cx="200" cy="200" r="5" fill="#c9a962"/>
  <text x="200" y="250" text-anchor="middle" fill="#4a90d9" font-size="9" font-family="serif" letter-spacing="2">GMT</text>
</svg>
