<svg xmlns="http://www.w3.org/2000/svg" viewBox="0 0 400 400">
  <rect width="400" height="400" fill="#08090c"/>
  <polygon points="200,40 310,85 355,200 310,315 200,360 90,315 45,200 90,85" fill="#1a1e28" stroke="#c9a962" stroke-width="4"/>
  <g fill="#c9a962">
    <circle cx="200" cy="55" r="5"/><circle cx="295" cy="100" r="5"/>
    <circle cx="340" cy="200" r="5"/><circle cx="295" cy="300" r="5"/>
    <circle cx="200" cy="345" r="5"/><circle cx="105" cy="300" r="5"/>
    <circle cx="60" cy="200" r="5"/><circle cx="105" cy="100" r="5"/>
  </g>
  <circle cx="200" cy="200" r="110" fill="#12161e"/>
  <g stroke="#1e2838" stroke-width="0.6">
    <line x1="110" y1="140" x2="290" y2="140"/><line x1="110" y1="170" x2="290" y2="170"/>
    <line x1="110" y1="200" x2="290" y2="200"/><line x1="110" y1="230" x2="290" y2="230"/>
    <line x1="110" y1="260" x2="290" y2="260"/>
  </g>
  <g fill="#c9a962">
    <rect x="192" y="105" width="16" height="16" rx="1"/>
    <rect x="192" y="279" width="16" height="16" rx="1"/>
    <rect x="105" y="192" width="16" height="16" rx="1"/>
    <rect x="279" y="192" width="16" height="16" rx="1"/>
  </g>
  <line x1="200" y1="200" x2="180" y2="130" stroke="#e8e4d0" stroke-width="3" stroke-linecap="round"/>
  <line x1="200" y1="200" x2="260" y2="220" stroke="#c9a962" stroke-width="2.5" stroke-linecap="round"/>
  <circle cx="200" cy="200" r="5" fill="#c9a962"/>
  <text x="200" y="250" text-anchor="middle" fill="#6a7a50" font-size="7" font-family="serif">OFFSHORE</text>
</svg>