<svg xmlns="http://www.w3.org/2000/svg" viewBox="0 0 800 800" width="800" height="800">
  <defs><radialGradient id="bg" cx="50%" cy="42%" r="75%">
    <stop offset="0%" stop-color="#efece5"/><stop offset="100%" stop-color="#d6d2c8"/>
  </radialGradient></defs>
  <rect width="800" height="800" fill="url(#bg)"/>
  <ellipse cx="430" cy="640" rx="240" ry="34" fill="#000" opacity="0.12"/>
     <g transform="translate(400,390) rotate(-20)">
    <rect x="-58" y="-330" width="116" height="190" rx="20" fill="#5b4232"/>
    <rect x="-58" y="140" width="116" height="190" rx="20" fill="#5b4232"/>
    <rect x="-46" y="-322" width="92" height="174" rx="14" fill="none" stroke="#000" stroke-opacity="0.16" stroke-width="3"/>
    <rect x="-46" y="148" width="92" height="174" rx="14" fill="none" stroke="#000" stroke-opacity="0.16" stroke-width="3"/>
    <rect x="182" y="-26" width="30" height="52" rx="9" fill="#3a3a40"/>
    
    <circle r="190" fill="#3a3a40"/>
    <circle r="190" fill="none" stroke="#000" stroke-opacity="0.18" stroke-width="4"/>
    <circle r="160" fill="#26262a"/>
    <circle r="160" fill="none" stroke="#000" stroke-opacity="0.25" stroke-width="2"/>
    
    <g><line x1="0.0" y1="-148.0" x2="0.0" y2="-126.0" stroke="#e9e2d2" stroke-width="7" stroke-linecap="round"/><line x1="74.0" y1="-128.2" x2="68.0" y2="-117.8" stroke="#e9e2d2" stroke-width="3.5" stroke-linecap="round"/><line x1="128.2" y1="-74.0" x2="117.8" y2="-68.0" stroke="#e9e2d2" stroke-width="3.5" stroke-linecap="round"/><line x1="148.0" y1="-0.0" x2="126.0" y2="-0.0" stroke="#e9e2d2" stroke-width="7" stroke-linecap="round"/><line x1="128.2" y1="74.0" x2="117.8" y2="68.0" stroke="#e9e2d2" stroke-width="3.5" stroke-linecap="round"/><line x1="74.0" y1="128.2" x2="68.0" y2="117.8" stroke="#e9e2d2" stroke-width="3.5" stroke-linecap="round"/><line x1="0.0" y1="148.0" x2="0.0" y2="126.0" stroke="#e9e2d2" stroke-width="7" stroke-linecap="round"/><line x1="-74.0" y1="128.2" x2="-68.0" y2="117.8" stroke="#e9e2d2" stroke-width="3.5" stroke-linecap="round"/><line x1="-128.2" y1="74.0" x2="-117.8" y2="68.0" stroke="#e9e2d2" stroke-width="3.5" stroke-linecap="round"/><line x1="-148.0" y1="0.0" x2="-126.0" y2="0.0" stroke="#e9e2d2" stroke-width="7" stroke-linecap="round"/><line x1="-128.2" y1="-74.0" x2="-117.8" y2="-68.0" stroke="#e9e2d2" stroke-width="3.5" stroke-linecap="round"/><line x1="-74.0" y1="-128.2" x2="-68.0" y2="-117.8" stroke="#e9e2d2" stroke-width="3.5" stroke-linecap="round"/></g>
    <path d="M -12 -138 L 12 -138 L 0 -114 Z" fill="#e9e2d2"/>
    <line x1="0" y1="16" x2="0" y2="-96" stroke="#e9e2d2" stroke-width="9" stroke-linecap="round"/>
    <line x1="0" y1="16" x2="66" y2="44" stroke="#e9e2d2" stroke-width="7" stroke-linecap="round"/>
    <line x1="0" y1="12" x2="-44" y2="-108" stroke="#e9e2d2" stroke-width="3" stroke-linecap="round" opacity="0.9"/>
    <circle r="10" fill="#e9e2d2"/>
  </g>
</svg>