<svg xmlns="http://www.w3.org/2000/svg" viewBox="0 0 400 400" fill="none">
  <rect width="400" height="400" fill="#0e0e12"/>
  <rect x="85" y="85" width="230" height="230" rx="20" fill="#16161c" stroke="#c9a962" stroke-width="2"/>
  <rect x="105" y="105" width="190" height="190" rx="8" fill="#101014"/>
  <g fill="#c9a962">
    <circle cx="115" cy="115" r="8"/><circle cx="285" cy="115" r="8"/>
    <circle cx="115" cy="285" r="8"/><circle cx="285" cy="285" r="8"/>
    <circle cx="115" cy="115" r="3" fill="#0e0e12"/><circle cx="285" cy="115" r="3" fill="#0e0e12"/>
    <circle cx="115" cy="285" r="3" fill="#0e0e12"/><circle cx="285" cy="285" r="3" fill="#0e0e12"/>
  </g>
  <g stroke="#e8e4d9" stroke-width="2" stroke-linecap="round">
    <line x1="200" y1="120" x2="200" y2="135"/><line x1="200" y1="265" x2="200" y2="280"/>
    <line x1="120" y1="200" x2="135" y2="200"/><line x1="265" y1="200" x2="280" y2="200"/>
  </g>
  <line x1="200" y1="200" x2="200" y2="140" stroke="#e8e4d9" stroke-width="3" stroke-linecap="round"/>
  <line x1="200" y1="200" x2="250" y2="230" stroke="#c9a962" stroke-width="2.5" stroke-linecap="round"/>
  <circle cx="200" cy="200" r="5" fill="#c9a962"/>
  <text x="200" y="355" text-anchor="middle" fill="#8a7a50" font-size="11" font-family="serif" letter-spacing="4">SANTOS</text>
</svg>
