<svg xmlns="http://www.w3.org/2000/svg" viewBox="0 0 400 400">
  <rect width="400" height="400" fill="#08090c"/>
  <circle cx="200" cy="200" r="175" fill="#2a2520" stroke="#c9a962" stroke-width="5"/>
  <circle cx="200" cy="200" r="155" fill="#1a1810"/>
  <circle cx="200" cy="200" r="125" fill="#0f0e0c"/>
  <g fill="#c9a962" font-size="7" font-family="Arial, sans-serif" text-anchor="middle">
    <text x="200" y="90">JAN</text><text x="250" y="105">FEB</text><text x="285" y="140">MAR</text>
    <text x="300" y="185">APR</text><text x="300" y="230">MAY</text><text x="285" y="275">JUN</text>
    <text x="250" y="310">JUL</text><text x="200" y="325">AUG</text>
  </g>
  <g fill="#e8e4d0">
    <rect x="193" y="100" width="14" height="18" rx="1"/>
    <rect x="193" y="282" width="14" height="18" rx="1"/>
    <rect x="100" y="193" width="18" height="14" rx="1"/>
    <rect x="282" y="193" width="18" height="14" rx="1"/>
  </g>
  <line x1="200" y1="200" x2="200" y2="125" stroke="#e8e4d0" stroke-width="4" stroke-linecap="round"/>
  <line x1="200" y1="200" x2="260" y2="200" stroke="#c9a962" stroke-width="3" stroke-linecap="round"/>
  <circle cx="200" cy="200" r="6" fill="#c9a962"/>
  <rect x="265" y="186" width="32" height="28" rx="2" fill="#0d0d0d" stroke="#c9a962" stroke-width="1"/>
  <text x="281" y="206" text-anchor="middle" fill="#e8e4d0" font-size="13" font-family="Georgia, serif">15</text>
  <text x="200" y="255" text-anchor="middle" fill="#888" font-size="8" font-family="Arial, sans-serif" letter-spacing="1">SKY-DWELLER</text>
</svg>